<svg xmlns="http://www.w3.org/2000/svg" width="649.404" height="482.375" viewBox="0 0 649.404 482.375">
  <g id="undraw_connected_world_wuay" transform="translate(0 0)">
    <path id="Path_5" data-name="Path 5" d="M609.969,130.27C536.265,27.7,380.564-13.9,227.437,30.909,146.484,54.6,68.43,102.063,29.748,193.972c-69.148,164.3,76.036,216.767,170.971,233.491a513.393,513.393,0,0,1,128.649,40.164c71.08,33.273,196.895,62.756,291.766-75.84C689.9,291.332,659.069,198.588,609.969,130.27Z" transform="translate(-11.697 -13.011)" fill="rgba(242,242,242,0.52)"/>
    <path id="Path_6" data-name="Path 6" d="M213.159,251.379a18.979,18.979,0,0,0-1.241-4.749,2.15,2.15,0,0,0-1.093-1.346,2.252,2.252,0,0,0-1.084-.012l-5.567.852a2.134,2.134,0,0,0-1.27.494c-.725.763-.011,1.991-.033,3.043a2.86,2.86,0,0,1-2.216,2.461,8.377,8.377,0,0,1-3.521-.044l-7.785-1.21a12.836,12.836,0,0,0,5.889-3.93c1.024-1.214,1.57-3.479.089-4.054a3.635,3.635,0,0,0-1.352-.109c-3.527.027-6.3-2.918-9.6-4.158a10.62,10.62,0,0,0-11.952,3.563l4.147.2a1.84,1.84,0,0,1,1.1.295c.909.747-.221,2.181-.093,3.35.166,1.519,2.183,1.844,3.7,2s3.449,1.389,2.718,2.731c-7.642,2.632-15.419-5.146-23.445-4.188a47.633,47.633,0,0,0-5.933,1.542c-12.115,3.065-24.64-5.113-37.017-3.381a47,47,0,0,0-8.08,2.131,10.893,10.893,0,0,0-4.665,2.433c-1.224,1.283-1.69,3.476-.53,4.818a27.114,27.114,0,0,1-9.5-.9,5.323,5.323,0,0,1,2.737,4.692,56.379,56.379,0,0,0-14.443,4.4,24.326,24.326,0,0,0,2.989,3.982l-6.317,4.058a3.605,3.605,0,0,1,2,5.265c2.213-.984,3.584-3.531,5.951-4.048,1.55-.338,3.128.3,4.6.892s3.087,1.173,4.61.726,2.645-2.421,1.678-3.679a78.775,78.775,0,0,1,20.009-3.126,2.51,2.51,0,0,1,1.515.288c.882.612.65,1.934.6,3.007s.788,2.482,1.747,2c-1.128.978-.164,2.819.918,3.848s2.386,2.447,1.724,3.785c-.173.349-.466.629-.633.981-.491,1.04.289,2.252,1.208,2.943a10.3,10.3,0,0,1,2.685,2.13c.639.956.349,2.63-.794,2.764l-3.247-4.122a8.452,8.452,0,0,0-2.193,4.156,8.721,8.721,0,0,1,1.078,11.929c-1.473,1.73-3.568,2.782-5.4,4.132s-3.52,3.272-3.515,5.544c.008,3.926-.313,7.573,1.158,11.213a172.727,172.727,0,0,0,9.377,19.564c.928,1.659,2.127,3.478,4.006,3.763q-3.563-8.673-6.414-17.616c1.238,0,2.669.1,3.395,1.106.6.831.472,1.96.659,2.968a9.2,9.2,0,0,0,1.173,2.756l11.342,20.2c.94,1.675,2.019,3.473,3.816,4.151,1.149.434,2.478.352,3.536.976.829.489,1.387,1.358,2.232,1.819,2.389,1.3,5.712-1.2,7.944.36a22.332,22.332,0,0,1,1.633,1.661c2.062,1.786,5.445.591,7.826,1.923,1.534.859,2.329,2.576,3.148,4.132,2.05,3.9,5.367,7.716,9.76,8.027a27.2,27.2,0,0,1,4.138.143c1.349.307,2.677,1.484,2.46,2.85-.371,2.342.786,4.907.475,7.258-.566,4.283-6.641,6.165-7.163,10.453a24.264,24.264,0,0,1-.159,2.827c-.274,1.126-1.12,2.044-1.421,3.163-.57,2.122.95,4.233,2.62,5.661s3.662,2.658,4.575,4.657c.965,2.112.491,4.575.8,6.875.685,5.023,5.023,8.746,9.488,11.147a9.911,9.911,0,0,1,3.7,2.709c1.149,1.656,1.035,3.84,1.418,5.819.94,4.847,5.02,8.84,5.136,13.776.082,3.508-1.868,6.691-3.033,10a23.323,23.323,0,0,0,1.9,19.343,30.977,30.977,0,0,1,2.53,4.454c1.1,2.847.743,6.083,1.757,8.961,1.341,3.805,5.026,6.948,4.673,10.968,1.673,3.474,5.367,5.181,9.081,6.215l6.657,1.853a8.554,8.554,0,0,0,3.9.456,2.93,2.93,0,0,0,2.5-2.657c-3.265-.736-6.634-1.519-9.325-3.508s-4.535-5.532-3.514-8.719c.473-1.478,1.481-3.184.523-4.405-.548-.7-1.551-.882-2.169-1.52-.965-.995-.633-2.666.06-3.866s1.7-2.272,1.976-3.629a3.787,3.787,0,0,0-1.775-3.94,9.413,9.413,0,0,0,3.3-2.114,3.213,3.213,0,0,0,.585-3.64c2.024.257,4.414.383,5.743-1.166,1.061-1.237.988-3.085.569-4.66a19.9,19.9,0,0,1-1.15-4.733,86.251,86.251,0,0,0,13.993-.475,9.073,9.073,0,0,0-4.254-5.328c2.1-.356,4.019-2.874,4.684-4.9a12.609,12.609,0,0,0,.084-6.328,3.4,3.4,0,0,1-.063-1.658,3.231,3.231,0,0,1,1.664-1.609l10.439-6a6.083,6.083,0,0,0,1.669-1.232c1.094-1.285.932-3.224.372-4.816s-1.457-3.088-1.673-4.762c-.645-5,4.712-8.6,6.52-13.307a20.047,20.047,0,0,0,.991-5.834c.147-2.122.158-4.586-1.471-5.954-1.562-1.311-4-1.018-5.636-2.237-1.5-1.118-2.015-3.289-3.652-4.191-1.486-.82-3.35-.3-5-.684-2.911-.679-4.742-4.034-7.715-4.344-1.677-.175-3.575.645-4.95-.332-1.211-.861-1.26-2.591-1.49-4.059a11.334,11.334,0,0,0-9.148-9.178c-1.729-.277-3.612-.172-5.083-1.122-1.49-.962-2.173-2.764-3.343-4.1-1.886-2.148-4.856-2.911-7.639-3.565l-11.318-2.661c-2.009-.472-4.6-.723-5.677,1.037a8.133,8.133,0,0,0-.672,2.112,6.541,6.541,0,0,1-6.151,4.63,7.274,7.274,0,0,0-4.289-3.319,26.724,26.724,0,0,1-3.471-.826,4.875,4.875,0,0,1-2.115-6.763,6.068,6.068,0,0,0-1.037-7.3c-1.925-1.728-4.709-2.145-7.29-1.973-.676-1.475.454-3.139,1.672-4.211s2.7-2.125,2.962-3.726c.417-2.518-2.8-4.43-5.234-3.679s-4,3.12-5.025,5.455a16.06,16.06,0,0,1-2.024,3.881,3.976,3.976,0,0,1-3.85,1.576c-2.008-.513-2.784-2.9-3.229-4.924a32.025,32.025,0,0,1-1.071-8.249,10.787,10.787,0,0,1,3.11-7.512c3.339-3.065,8.46-2.764,12.966-2.276a3.293,3.293,0,0,1,.338-4.35,4.945,4.945,0,0,1,4.482-1.1,6.177,6.177,0,0,1,3.472,2.076c1.28,1.561,1.644,3.669,2.612,5.441s3.144,3.283,4.925,2.333c1.538-.821,1.783-2.954,1.4-4.656s-1.2-3.356-1.057-5.094c.265-3.317,3.7-5.313,6.737-6.679s6.508-3.2,6.989-6.5a5.923,5.923,0,0,1,.36-1.888,3.7,3.7,0,0,1,1.359-1.278c8.855-5.852,17.858-11.776,27.979-14.973.527-.166.588.019,1.125-.112.751-.434.253-1.635-.467-2.119s-1.683-.855-1.865-1.7c-.134-.623.233-1.235.328-1.866a2.33,2.33,0,0,0-3.058-2.36c-.813-1.077.8-2.328,2.1-2.686a56.932,56.932,0,0,1,11.961-1.954,2.155,2.155,0,0,1,1.361.232,1.627,1.627,0,0,1,.111,2.222,13.074,13.074,0,0,1-1.83,1.662,5,5,0,0,0-1.3,5.025c2.112,1.074,4.407,2.18,6.746,1.8s4.415-3.006,3.315-5.1c-1.024-1.954-4.1-2.4-4.628-4.537-.619-2.508,2.931-4.738,2.131-7.195-.35-1.076-1.423-1.709-2.245-2.486a6.745,6.745,0,0,1-1.476-7.48,8.51,8.51,0,0,1-7.464-2.336c-1.785-1.8-3.209-4.644-5.744-4.563-2.326.074-4.33,2.788-6.505,1.96-.535-.2-1.1-.618-1.618-.375a1.337,1.337,0,0,0-.6,1c-.553,2.643.4,5.654-1.042,7.938-1.567,2.485-5.193,2.83-7.093,5.071-1.031,1.216-1.431,2.856-2.379,4.138s-2.961,2.1-4.1.98a5.649,5.649,0,0,0-1.535-6.869,15.075,15.075,0,0,0-3.39-1.649,20.1,20.1,0,0,1-3.787-2.11,3.73,3.73,0,0,1-1.39-1.487,3.39,3.39,0,0,1,.1-2.352,9.618,9.618,0,0,1,7.654-6.344c1.515-.206,3.278-.133,4.281-1.288.531-.611.809-1.534,1.579-1.782a2.329,2.329,0,0,1,1.458.18l5.655,1.99a3.969,3.969,0,0,0,2.014.333,1.366,1.366,0,0,0,1.181-1.435c-.181-.939-1.626-1.39-1.494-2.337a1.56,1.56,0,0,1,.473-.8,20.217,20.217,0,0,1,16.034-6.332c.714,1.172-.415,2.56-1.354,3.561s-1.694,2.789-.558,3.559a3.115,3.115,0,0,0,1.506.339,13.145,13.145,0,0,1,4.007,1.216q2.931,1.276,5.75,2.791a7.29,7.29,0,0,1,.145-3.7,2.507,2.507,0,0,1,2.97-1.616c1.123.435,1.7,1.922,2.9,2.059,1.6.182,2.227-2.177,1.56-3.639s-1.987-2.686-2.1-4.289c-.074-1.082.337-2.423-.527-3.078a2.352,2.352,0,0,0-1.019-.357l-21.572-3.97c-1.281-.236-3.132-.055-3.189,1.246-.032.726.617,1.445.33,2.113-.307.713-1.314.648-2.048.9a2.8,2.8,0,0,0-1.6,2.942,8.186,8.186,0,0,0,1.351,3.316C216.686,252.074,214.562,251.966,213.159,251.379Z" transform="translate(-42.208 -113.829)" fill="#3f3d56"/>
    <path id="Path_7" data-name="Path 7" d="M283.627,228.764a6.985,6.985,0,0,0-7.673,2.3,1.537,1.537,0,0,0-.356,1.619c.426.726,1.513.439,2.313.18a5.822,5.822,0,0,1,3.654-.087c.752.258,1.425.714,2.18.963a2.2,2.2,0,0,0,2.238-.327,2.914,2.914,0,0,0,.552-2.091,1.682,1.682,0,0,0-.428-1.382,2.2,2.2,0,0,0-.991-.293,3.413,3.413,0,0,1-2-1.167" transform="translate(-129.888 -109.525)" fill="#3f3d56"/>
    <path id="Path_8" data-name="Path 8" d="M302.816,225.125a1.777,1.777,0,0,0-1.717,2.5,7.2,7.2,0,0,0,2.872.187,2.454,2.454,0,0,0,2.007-1.84,4.621,4.621,0,0,1-3.272-.625" transform="translate(-141.299 -108.052)" fill="#3f3d56"/>
    <path id="Path_9" data-name="Path 9" d="M345.642,216.662a33.033,33.033,0,0,0-7.364,2.5,5.533,5.533,0,0,1,3.534,5.557,2.894,2.894,0,0,0,.034,1.374c.27.656,1.054.9,1.743,1.07a11.492,11.492,0,0,0,3.823.488,3.9,3.9,0,0,0,3.165-1.934,13.79,13.79,0,0,1,.658-1.556c1.651-2.515,6.558.526,8.331-1.9.625-.856.568-2.145,1.382-2.824a3.1,3.1,0,0,1,1.42-.542,99.742,99.742,0,0,1,10.789-1.537c1.716-.149,3.953-.766,3.967-2.488a29.886,29.886,0,0,0-19.064,2.565c-2.125,1.064-4.936,3.3-6.983,1.892-.766-.528-.728-1.951-1.783-2.545A5.378,5.378,0,0,0,345.642,216.662Z" transform="translate(-158.028 -103.206)" fill="#3f3d56"/>
    <path id="Path_10" data-name="Path 10" d="M389.049,220.353l3.034.583a3.932,3.932,0,0,0-4.092,4.261c2.841.949,5.939.026,8.932.152s6.476,2.264,5.965,5.216c-.154.893-.67,1.785-.4,2.65a9.852,9.852,0,0,0,1.025,1.6,3.573,3.573,0,0,1-.668,3.694c-.794,1.058-1.862,1.9-2.559,3.026-1.734,2.8-.749,6.412.284,9.536a8.407,8.407,0,0,0,1.616,3.228c1.53,1.627,4.024,1.769,6.258,1.8,1.626.024,3.488-.057,4.516-1.316,1.342-1.644.4-4.21,1.287-6.14.8-1.753,2.847-2.5,4.7-3.038a70.324,70.324,0,0,0,10.061-3.284c3.984-1.833,7.708-4.688,12.087-4.924a16.588,16.588,0,0,0,3.671-.258,2.791,2.791,0,0,0,2.218-2.587c-.077-1.048-.964-1.818-1.657-2.609s-1.237-2.006-.6-2.842l11.478-2.144c-.814-2.217-1.447-5.138.422-6.581.675-.521,1.578-.729,2.152-1.358.979-1.073.487-2.921-.643-3.834a7.373,7.373,0,0,0-4.105-1.245,110.153,110.153,0,0,0-15.137.135l-29.572,1.621c-1.984.109-4.276-.057-6.1.62-1.541.573-2.636,1.625-4.4,1.995C395.573,218.988,391.993,218.526,389.049,220.353Z" transform="translate(-180.297 -102.943)" fill="#3f3d56"/>
    <path id="Path_11" data-name="Path 11" d="M487.4,267.39a1.221,1.221,0,0,0-.883.2,1.115,1.115,0,0,0-.288.681,4.5,4.5,0,0,0,.653,3.219,3.152,3.152,0,0,0,2.885,1.383c1.366-.174,2.373-1.34,3.629-1.909,1.936-.876,10.157-2.241,4.47-5.314-1.96-1.059-3.226-.124-4.771.573A10.856,10.856,0,0,1,487.4,267.39Z" transform="translate(-224.289 -125.998)" fill="#3f3d56"/>
    <path id="Path_12" data-name="Path 12" d="M577.24,221.012a3.247,3.247,0,0,0-1.58,1.375,1.387,1.387,0,0,0,.52,1.841,2.071,2.071,0,0,0,.775.123l2.7.081c1.147.034,2.58.279,2.888,1.384.229.821-.283,1.876.335,2.462a1.741,1.741,0,0,0,.919.358,6.26,6.26,0,0,0,2.721.088c1.965-.527.932-1.726,1.551-2.794.947-1.634.783-.645,2.451-1.581,1.232-.691,2.824-1.946,1.8-3.708C590.528,217.576,579.879,219.7,577.24,221.012Z" transform="translate(-264.32 -105.337)" fill="#3f3d56"/>
    <path id="Path_13" data-name="Path 13" d="M665.418,219.56l-1.568.209a63.157,63.157,0,0,0-10.5,2.01,17.467,17.467,0,0,0,4.6,1.128,14.123,14.123,0,0,1,2.575.366c1.5.448,3.02,1.6,4.473,1.012.9-.367,1.195-1.305,1.941-1.8.515-.343,2.47-.9,2.688-1.245C671.394,218.435,666.776,219.379,665.418,219.56Z" transform="translate(-299.204 -105.426)" fill="#3f3d56"/>
    <path id="Path_14" data-name="Path 14" d="M681.831,231.532a29.4,29.4,0,0,0-5.786,4.237,3.5,3.5,0,0,0-1.422,2.563c.089,1.341,1.517,2.119,2.754,2.643l5.012,2.122c.608-.857.052-2.04-.577-2.882s-1.375-1.817-1.1-2.83c.317-1.157,1.727-1.551,2.91-1.75,1.927-.325,7.124-.3,6.5-3.4C689.388,228.572,683.765,230.451,681.831,231.532Z" transform="translate(-308.732 -110.272)" fill="#3f3d56"/>
    <path id="Path_15" data-name="Path 15" d="M685.583,590.826a4.782,4.782,0,0,0,.3,4.215,4.27,4.27,0,0,0,4.383,1.515,7.9,7.9,0,0,0,4.07-2.617,14.014,14.014,0,0,0,2.341-3.59A28.022,28.022,0,0,0,698.414,584l1.556-8.171c.348-1.826.334-7.425-3.022-5.6-.917.5-3.04,4.433-4,5.548-1.732,2.011-1.961,3.962-2.873,6.4C688.933,585.227,686.638,587.771,685.583,590.826Z" transform="translate(-313.492 -262.522)" fill="#3f3d56"/>
    <path id="Path_16" data-name="Path 16" d="M1003.138,682.364a24.445,24.445,0,0,1-3.189-1.518,26.885,26.885,0,0,0-1.617,8.812l7.515-4.252c1.131-.64,2.412-1.529,2.388-2.827a.894.894,0,0,0-.415-.813,1.012,1.012,0,0,0-.527-.062,12.719,12.719,0,0,0-3.182,1.023,3.883,3.883,0,0,1-3.245.017" transform="translate(-453.779 -312.248)" fill="#3f3d56"/>
    <path id="Path_17" data-name="Path 17" d="M1068.988,686.039a16.275,16.275,0,0,0-2.41.865c-1.725.877-2.9,2.544-4.45,3.7a17.659,17.659,0,0,1-5.028,2.3,1.205,1.205,0,0,0,.281,1.776,3.486,3.486,0,0,0,1.985.446,10.484,10.484,0,0,0,5.341-.823,16.854,16.854,0,0,0,2.515-2,26.627,26.627,0,0,1,6.329-3.579,7.262,7.262,0,0,0,2.206-1.319c1.4-1.374,1.493-3.494-.518-3.962C1073.613,683.073,1070.533,685.539,1068.988,686.039Z" transform="translate(-479.983 -313.398)" fill="#3f3d56"/>
    <path id="Path_18" data-name="Path 18" d="M1105.206,663.271a6.268,6.268,0,0,0-1.918-5.137c-.021,1.892-.078,3.907-1.142,5.472-.758,1.115-1.947,1.868-2.778,2.929s-1.2,2.745-.225,3.676a3.651,3.651,0,0,0,2.164.745c1.939.228,4.184.356,5.544-1.046.742-.765,1.1-1.9,2.009-2.46a2.445,2.445,0,0,0,.882-.631c.374-.594-.22-1.378-.889-1.592s-1.406-.113-2.078-.317-1.288-.959-.944-1.571" transform="translate(-498.688 -302.071)" fill="#3f3d56"/>
    <path id="Path_19" data-name="Path 19" d="M1029.512,536.472a8.716,8.716,0,0,1-3.11.184c-1.727-.317-3.07-1.619-4.464-2.686a19.691,19.691,0,0,0-11.505-4.02c-3.788-.072-7.611.955-11.331.239a4.47,4.47,0,0,0,2.634,2.968c1.234.6,2.6.906,3.837,1.5a9.159,9.159,0,0,1,4.437,4.616,13.048,13.048,0,0,0,1.256,2.761c1.237,1.664,3.581,2.029,5.649,1.893,2.7-.177,5.514-.953,8.024.052,1.919.769,3.293,2.449,4.9,3.755s3.86,2.276,5.7,1.333a9.424,9.424,0,0,1-6.521-9.068c1.805.166,7,.1,6.724-2.965C1035.5,534.431,1031.063,536.192,1029.512,536.472Z" transform="translate(-454.123 -244.634)" fill="#3f3d56"/>
    <path id="Path_20" data-name="Path 20" d="M967.656,572.866c.32-1.758,2.073-3.31,1.527-5.011a3.084,3.084,0,0,0-2.977-1.786c-1.235-.029-2.449.339-3.684.374a17.967,17.967,0,0,0-2.412.034c-2.452.4-3.963,2.973-6.274,3.887-1.405.556-2.984.449-4.445.833-3.317.872-5.416,4.006-7.734,6.534a27.6,27.6,0,0,1-14.01,8.171c-1.886.437-3.913.716-5.413,1.941-1.985,1.622-2.474,4.4-2.915,6.928a114.42,114.42,0,0,1-5.571,20.449l7.876,1.006a10.7,10.7,0,0,0,4.492-.065,13.047,13.047,0,0,0,2.955-1.574,29.5,29.5,0,0,1,11.524-4.16,12.236,12.236,0,0,1,6.161.432,5.729,5.729,0,0,1,3.758,4.581,4.839,4.839,0,0,1,4.836,1.176,8.407,8.407,0,0,1,2.309,4.609c.207,1.078.415,2.369,1.415,2.821.816.369,1.751-.028,2.644-.1,3.028-.242,5.541,3.289,8.517,2.681,3.192-.652,3.976-5.433,7.09-6.39,1.789-.55,4.3.119,5.154-1.545.755-1.466-.751-3.159-.6-4.8.191-2.022,2.576-2.88,4.414-3.743,6.338-2.974,9.346-11.5,6.275-17.8-1.82-3.728-5.4-6.662-6.062-10.758-.509-3.151.733-6.825-1.276-9.305-1.022-1.262-2.752-1.958-3.36-3.464a17.071,17.071,0,0,1-.435-3.024c-.206-1-1.079-2.048-2.068-1.789-2.869.753-3.785,9.617-5.321,11.771A3.563,3.563,0,0,1,967.656,572.866Z" transform="translate(-415.879 -259.879)" fill="#3f3d56"/>
    <path id="Path_21" data-name="Path 21" d="M912.011,547.554a4.619,4.619,0,0,0-2.991-.153c-.94.393-1.488,1.772-.734,2.457a101.259,101.259,0,0,1,17.684.343c6.739.923,13.409,3.209,20.177,2.537a102.64,102.64,0,0,0-11.77-2.731l-6.627-1.266a51.236,51.236,0,0,0-5.381-.831C918.589,547.6,915.728,548.6,912.011,547.554Z" transform="translate(-413.273 -252.367)" fill="#3f3d56"/>
    <path id="Path_22" data-name="Path 22" d="M921.436,504.84c-.49-.041-1.1-.076-1.35.345-.242.4.035.934-.1,1.385-.178.616-.985.774-1.621.69a3.107,3.107,0,0,0-1.887.022,1.6,1.6,0,0,0-.618,1.817,4.678,4.678,0,0,0,1.091,1.739,17.763,17.763,0,0,0,2.83,2.839c2.028,1.5,4.775,2.218,6.051,4.39a2.915,2.915,0,0,0,.808,1.088,2.246,2.246,0,0,0,2.073-.209l2.314-1.057a2.627,2.627,0,0,0,1.082-.736,2.377,2.377,0,0,0-.24-2.509,4.314,4.314,0,0,1-.916-2.458c.17-1.579,2.2-2.184,3.036-3.535s.294-3.117.391-4.716c.114-1.869,1.288-4.3-.6-5.7-1.606-1.187-3.141-.09-4.294,1.22C927.056,502.22,925.906,505.213,921.436,504.84Z" transform="translate(-416.792 -230.199)" fill="#3f3d56"/>
    <path id="Path_23" data-name="Path 23" d="M951.121,455.591c.79,1.512,2.437,2.415,3.3,3.888.934,1.6.827,3.659,1.84,5.207,1.039,1.588,3.13,2.43,3.713,4.236.636,1.972-.807,4.368.343,6.09a2.557,2.557,0,0,0,3.75.345,2.751,2.751,0,0,0-.114-3.838c-.681-.621-1.66-.89-2.228-1.615a3.39,3.39,0,0,1-.577-1.405,9.2,9.2,0,0,1,.145-4.409,1.962,1.962,0,0,0,.111-1.153c-.256-.744-1.264-.8-1.971-1.143-1.607-.784-1.568-3.052-1.287-4.818-.187,1.176-4.375-.824-4.813-1.49-.871-1.323-.4-3.875-.569-5.336A4.155,4.155,0,0,0,951.121,455.591Z" transform="translate(-432.433 -208.879)" fill="#3f3d56"/>
    <path id="Path_24" data-name="Path 24" d="M871.94,501.033c-.773-.865-1.937-1.77-2.973-1.249a1.882,1.882,0,0,0-.7,2.321,5.108,5.108,0,0,0,1.686,2.01,58.85,58.85,0,0,1,6.369,5.459c3.371,3.7,5.157,8.7,8.824,12.117a4.948,4.948,0,0,0,2.779,1.5,2.159,2.159,0,0,0,2.39-1.65,3.146,3.146,0,0,0-1.109-2.314c-1.424-1.549-2.983-2.975-4.328-4.594a3.859,3.859,0,0,1-1.106-2.31c-.007-.872.788-1.784,1.632-1.568-1.027-.263-1.789-1.974-3.3-2.3-1.26-.269-1.564.511-3.064-.132C876.187,507.1,873.943,503.275,871.94,501.033Z" transform="translate(-395.441 -231.05)" fill="#3f3d56"/>
    <path id="Path_25" data-name="Path 25" d="M984.468,348.708a23.693,23.693,0,0,1-2.416-.863c-2.123-.637-4.932.923-4.649,3.122.188,1.461,1.547,2.446,2.3,3.713,1.113,1.879.817,4.262.231,6.366a4.974,4.974,0,0,1-.8,1.811,6.134,6.134,0,0,1-1.9,1.368,25.446,25.446,0,0,0-7.445,6.325,1.824,1.824,0,0,0-.45.848c-.1.742.645,1.283,1.067,1.9.937,1.375.26,3.226.352,4.887a1.382,1.382,0,0,0,.582,1.212c.565.287,1.234-.2,1.54-.755,1.016-1.84.251-4.795,2.156-5.682.361-.168.8-.239,1.038-.555.382-.5.013-1.246.207-1.847.291-.9,1.524-.942,2.47-.9a14.021,14.021,0,0,0,4.815-.641,3.206,3.206,0,0,0,1.594-.923,3.468,3.468,0,0,0,.405-2.626,35.593,35.593,0,0,0-4.205-12.832c1.674.214,3.5.4,4.94-.473.809-.489,1.779-1.95,1.378-2.944C987.038,347.647,985.891,348.971,984.468,348.708Z" transform="translate(-440.78 -162.976)" fill="#3f3d56"/>
    <path id="Path_26" data-name="Path 26" d="M552.067,384.87a6.448,6.448,0,0,1,.045,3.241,2.217,2.217,0,0,1-2.506,1.582c-.812-.246-1.281-1.062-1.857-1.685-3.206-3.461-10.438-1.457-12.419-5.739-.808-1.747-.259-3.841-.81-5.685A5.061,5.061,0,0,0,529.4,373.1a10.529,10.529,0,0,0-2.949.88,74.363,74.363,0,0,1-19.539,4.887,16.053,16.053,0,0,0-3.754.683c-2.753,1-4.634,3.55-5.972,6.155s-2.327,5.424-4.122,7.738c-1.886,2.432-4.529,4.135-6.995,5.976a7.137,7.137,0,0,0-2.307,2.418,7.565,7.565,0,0,0-.463,3.594l.5,14.816a13.38,13.38,0,0,0,1,5.585c1.065,2.13,3.169,3.524,4.629,5.406a10.588,10.588,0,0,1,2.2,6.761c-.031.981-.128,2.141.635,2.757a2.794,2.794,0,0,0,1.562.449l20.042,1.64c3.526.288,7.432.763,9.734,3.449,1.086,1.268,1.959,3.091,3.623,3.227a13.453,13.453,0,0,0,2.122-.291c1.8-.143,3.383,1.224,4.382,2.73a12.111,12.111,0,0,1,1.945,7.771c-.164,1.718-.7,3.387-.811,5.109-.437,6.55,5.116,12.241,5.224,18.8.063,3.861-1.77,7.468-3.556,10.891,2.884,4.369.522,10.187,1.671,15.295,1.089,4.846,5.13,8.639,6.136,13.5.461,2.227.488,4.966,2.451,6.113a5.588,5.588,0,0,0,2.773.555,36.564,36.564,0,0,0,16.649-3.79c2.428-1.2,4.944-3,5.368-5.68.342-2.159-.753-4.573.361-6.454,1.313-2.216,4.677-2.04,6.609-3.744,3.134-2.764.69-8.036,1.96-12.017,1.141-3.579,5.071-5.48,7.018-8.692a15.438,15.438,0,0,0,1.631-4.42,63.05,63.05,0,0,0,1.659-11.274,67.574,67.574,0,0,1,.51-6.905c2.1-13.046,15-21.782,19.185-34.316.4-1.2.588-2.791-.477-3.468a3.05,3.05,0,0,0-2.028-.212l-9.239,1.165a6.361,6.361,0,0,1-3.418-.2,2.193,2.193,0,0,1-1.25-2.822c1.569-2.842-1.659-6.434-3.093-9.347a137.928,137.928,0,0,0-13.735-22.274,2.264,2.264,0,0,1-.6-1.307l2.622.087c-.885-3.176-2.346-6.652-5.431-7.813-1.739-.655-3.664-.428-5.519-.327C563.022,386.486,557.326,385.683,552.067,384.87Z" transform="translate(-222.996 -174.353)" fill="#3f3d56"/>
    <path id="Path_27" data-name="Path 27" d="M582.159,247.291c1.39,1.477,2.948,3.042,4.96,3.3,3.553.455,6.108-3.22,7.735-6.412a3.133,3.133,0,0,0,3.269,2.9,6.454,6.454,0,0,0,2.459-.961,48.44,48.44,0,0,1,22.949-5.932,2.478,2.478,0,0,1,1.893-2.724c1.631-.323,3.1,1.087,3.887,2.552s1.278,3.163,2.528,4.26,3.671,1.049,4.164-.539c.474-1.524-1.114-2.825-2.434-3.723s-2.71-2.562-1.822-3.889c6.741-1.492,13.524-2.99,20.421-3.287a8.552,8.552,0,0,0,3.438-.592,2.672,2.672,0,0,0,1.605-2.825,7.784,7.784,0,0,1-8.123-3.064c9.571-.79,19.751-1.463,28.233,3.04,1.018,2.185-4.17,4-2.782,5.974a2.513,2.513,0,0,0,2.1.717,104.068,104.068,0,0,0,17.65-.673,23.634,23.634,0,0,1,6.419-.521c3.561.439,6.607,2.816,10.111,3.59a5.41,5.41,0,0,0,4.227-.5c1.2-.829,1.719-2.718.734-3.8,3.3-3.233,8.774-2.432,13.126-.884s8.475,4.044,13.081,4.389c3.3.247,6.652-.641,9.916-.076a61.733,61.733,0,0,1,5.964,1.828c3.791,1.06,7.8.836,11.739.888a82.25,82.25,0,0,1,29.311,5.824,8.715,8.715,0,0,1,3.258,1.925,3.2,3.2,0,0,1,.728,3.506l-9.644-1.409c.909,1.789,3.259,2.094,5.168,2.711s3.888,2.725,2.741,4.371c-2.068-.659-3.943,1.409-4.988,3.312s-2.318,4.181-4.486,4.3c-1.941.1-4.289-1.549-5.554-.073a37.878,37.878,0,0,1,4.463,7.135c1.25,2.6,2.14,5.885.451,8.228a2.133,2.133,0,0,1-1.14.884c-1.38.349-2.276-1.339-3.266-2.362-1.247-1.289-3.133-1.654-4.821-2.259s-3.467-1.794-3.6-3.583a7.157,7.157,0,0,1,.938-3.176,12.235,12.235,0,0,0,.93-5.488,6.233,6.233,0,0,0-1.6-4.135,3.21,3.21,0,0,0-4.12-.423c-.543.451-.978,1.172-1.684,1.2-1.246.048-2.2-2.125-3.206-1.383a3.407,3.407,0,0,1-.463,2.278c-2.992,2.6-7.588,1.5-11.445,2.42a21.48,21.48,0,0,0-5.222,2.28,3.36,3.36,0,0,0-1.492,1.253,2.31,2.31,0,0,0,.9,2.756,7.129,7.129,0,0,0,2.961,1.011c4.7.891,9.473,2.269,13.185,5.289s6.147,8.013,4.972,12.652l-9.273-8.86q.528,5.58.6,11.192a5.031,5.031,0,0,1-.294,2.153c-.661,1.46-2.453,1.951-4.023,2.274a3.151,3.151,0,0,0-2.419,4.037c.558,1.818,1.949,3.236,3.222,4.648s2.527,3.018,2.694,4.912-1.263,4.03-3.16,3.9c-1.438-.1-2.505-1.387-3.119-2.692a17.1,17.1,0,0,0-1.9-3.867c-2.79-3.356-9.057-1.918-11.556-5.5a5.652,5.652,0,0,0-1.169,5.379c1.163-.728,2.755-.052,3.628,1.006a24.806,24.806,0,0,1,1.972,3.6c.926,1.6,2.4,3.024,2.528,4.871a15.921,15.921,0,0,0,.035,2.095c.23,1.119,1.175,1.922,1.831,2.857,1.526,2.176,1.45,5.166.467,7.635a23.547,23.547,0,0,1-4.5,6.532,78.8,78.8,0,0,1-9.8,9.868,10.293,10.293,0,0,0-2.781,2.8,3.036,3.036,0,0,0,.313,3.663c-.708.035-1.978.384-2.686.419a62.432,62.432,0,0,1-.162-8.542c-2.794-1.342-5.8,2.251-5.442,5.33s2.587,5.549,4.173,8.213a9.7,9.7,0,0,1,1.634,6.452c-.387,2.233-2.381,4.294-4.639,4.1-3.592-.313-5.094-5.47-8.651-6.06a1.454,1.454,0,0,0-.936.093c-.528.29-.62,1-.649,1.6-.146,2.952-.272,6.022.881,8.744,1.686,3.982,6.042,7.327,5.128,11.553-4.922-2.288-7.481-7.808-8.643-13.11s-1.356-10.868-3.438-15.88c-1.582,2.027-4.906.351-6.351-1.775-1.37-2.016-2.213-4.348-3.543-6.392s-3.365-3.873-5.8-3.985c-2.553-.118-4.767,1.634-6.714,3.289a15.653,15.653,0,0,0-4.181,4.657c-1.362,2.738-1.006,5.966-1.071,9.023-.071,3.305-.771,6.793-3.024,9.212s-6.411,3.263-8.9,1.082a10.025,10.025,0,0,1-2.485-4.472,218.977,218.977,0,0,1-6.727-24.015c-.418,1.855-2.046,4.245-3.6,3.153a3.225,3.225,0,0,1-.83-1.069c-2.9-4.919-8.277-7.869-13.707-9.638s-11.144-2.594-16.514-4.538a41.831,41.831,0,0,1-8.567-4.267,6.737,6.737,0,0,0-.412,6.892,5.49,5.49,0,0,0,6.194,2.592c1.192-.381,2.2-1.209,3.383-1.618s2.771-.208,3.289.932c.5,1.091-.253,2.411.118,3.55.566,1.735,3.182,1.869,4.1,3.448a3.176,3.176,0,0,1-.852,3.683,15.411,15.411,0,0,1-3.456,2.128c-3.85,2.141-6.588,5.8-9.953,8.64s-8.113,4.92-12.123,3.1c.956-4.841-4.81-8.394-5.871-13.213-.349-1.586-.168-3.271-.667-4.816-.722-2.238-2.707-3.776-4.336-5.472a21.477,21.477,0,0,1-5.891-15.625c.088-1.991.454-4.015,0-5.956s-2.061-3.82-4.052-3.732c-4.549.2-10.279.539-12.665-3.338-.852-1.384-1.222-3.411.009-4.471a4.326,4.326,0,0,1,3.292-.565l10.248,1.008c2.4.236,4.988.43,7.045-.823s2.948-4.579,1.044-6.054c-1.392-1.077-3.885-1.019-4.289-2.731-.337-1.426,1.242-3.045.389-4.237-.611-.855-1.986-.618-2.819.023a18.063,18.063,0,0,1-2.37,2.063c-1.635.851-3.589.041-5.349-.509s-4.118-.6-4.971,1.037c-.954,1.828.847,4.222-.1,6.053-1.252,2.421-5.493,1.043-7.252,3.125-2.018,2.39,1.373,5.953.693,9.006a5.606,5.606,0,0,1-5.523-.31,5.365,5.365,0,0,1-2.318-5c.168-1.373.885-2.775.4-4.073a4.779,4.779,0,0,0-2.421-2.215l-9.959-5.5c-.925,1.715.244,3.842,1.706,5.13s3.293,2.259,4.253,3.954a5.19,5.19,0,0,1-1.953,6.843,1.2,1.2,0,0,1-.987.172,1.377,1.377,0,0,1-.64-.861c-1.757-4.5-4.4-8.93-8.613-11.279s-10.279-1.866-13.044,2.091c-.657.94-1.1,2.011-1.67,3-3.04,5.279-9.559,7.779-15.649,7.616a3.108,3.108,0,0,1-1.707-.4c-.984-.68-.94-2.122-.789-3.309l.639-5.036a4,4,0,0,1,1.115-2.76c1.128-.89,2.756-.328,4.193-.349a5.313,5.313,0,0,0,4.823-3.722A5.988,5.988,0,0,0,523.3,287.2c-.659-.619-1.542-1.4-1.195-2.229a1.843,1.843,0,0,1,1.292-.87c2.581-.749,5.308-.946,7.846-1.83s5-2.694,5.6-5.313c.184-.8.268-1.775.989-2.173a2.967,2.967,0,0,1,1.143-.233,5.562,5.562,0,0,0,4.771-5.8c1.216-.85,2.92-.225,4.1.679s2.216,2.1,3.647,2.488c2.668.726,5.246-1.636,8.012-1.647,1.163,0,2.367.407,3.461.012,1.109-.4,1.771-1.5,2.622-2.319s2.345-1.313,3.131-.434l-.669-4.957a9.746,9.746,0,0,0,7.932-1.434l-8.65-2.923a1.881,1.881,0,0,1-.809-.432c-.629-.677,0-1.732.507-2.5,1.223-1.841,1.429-4.875-.583-5.792-1.373-.626-2.949.125-4.267.86l-6.313,3.52c-.2,1.2,1.267,1.88,2.176,2.689a3.649,3.649,0,0,1-2.38,6.376,4.546,4.546,0,0,1,.812,3.855l-4.248.305a1.841,1.841,0,0,1-1.378-.269c-.454-.4-.393-1.111-.5-1.709a3.709,3.709,0,0,0-3.112-2.716,10.944,10.944,0,0,0-4.349.4,2.6,2.6,0,0,1-1.87-.043,1.866,1.866,0,0,1-.74-.934,4.8,4.8,0,0,1,.966-4.6,25.548,25.548,0,0,1,3.621-3.331,21.107,21.107,0,0,0,6.276-9.735c2.338-.98,4.759-2.311,7.1-3.291a21.719,21.719,0,0,1,11.674-2.262l7.919.151a18.99,18.99,0,0,1,6.921,1c2.168.894,4.073,2.827,4.223,5.167a1.586,1.586,0,0,1-.508,1.45,1.871,1.871,0,0,1-1,.226C585.277,246.669,584.345,247.214,582.159,247.291Z" transform="translate(-236.815 -108.346)" fill="#3f3d56"/>
    <path id="Path_28" data-name="Path 28" d="M517.671,307.6a2.317,2.317,0,0,0,.632-2.331,4.335,4.335,0,0,0-4.488.848,7.567,7.567,0,0,0-1.2,1.59c-1.041,1.7-1.961,3.726-1.358,5.623a1.6,1.6,0,0,0,.731,1,1.92,1.92,0,0,0,.852.133,28.566,28.566,0,0,0,3.429-.211c.7-.085,1.51-.283,1.781-.933.355-.855-.5-1.822-.254-2.713a2.965,2.965,0,0,1,.732-1.048,1.385,1.385,0,0,0,.432-1.163c-.1-.418-.741-.655-.971-.292" transform="translate(-235.448 -143.831)" fill="#3f3d56"/>
    <path id="Path_29" data-name="Path 29" d="M530.306,295.562a9.6,9.6,0,0,0-3.108-.2,1.354,1.354,0,0,0-.662.15,1.105,1.105,0,0,0-.408.591,2.936,2.936,0,0,0,1.709,3.6,3.669,3.669,0,0,1,1.06.426c.879.682.319,2.076.485,3.176.187,1.235,1.382,2.272,1.163,3.5-.173.969-1.208,1.736-1.041,2.706.174,1.016,1.464,1.321,2.491,1.4a3.133,3.133,0,0,0,1.765-.2,2.732,2.732,0,0,0,1.113-1.613,10.335,10.335,0,0,0,.521-3.892,3.69,3.69,0,0,0-.439-1.718,9.59,9.59,0,0,0-1.026-1.174C531.962,300.028,534.035,296.612,530.306,295.562Z" transform="translate(-242.138 -139.504)" fill="#3f3d56"/>
    <path id="Path_30" data-name="Path 30" d="M654.675,487.657S503.885,401.1,438.969,417.5c0,0-137.577,14.805-153.522,47.378,0,0-43.733-136.666-59.677-141.221" transform="translate(-107.617 -152.202)" fill="none" stroke="#e0c9be" stroke-miterlimit="10" stroke-width="2" opacity="0.8"/>
    <path id="Path_31" data-name="Path 31" d="M285.447,464.139c25.283-67.422,253.06-142.132,253.06-142.132-32.344,8.2-99.538,94.755-99.538,94.755s-142.133-103.411-213.2-93.844c0,0,312.965,10.25,428.9,164" transform="translate(-107.617 -151.463)" fill="none" stroke="#e0c9be" stroke-miterlimit="10" stroke-width="2" opacity="0.8"/>
    <circle id="Ellipse_2" data-name="Ellipse 2" cx="6.605" cy="6.605" r="6.605" transform="translate(111.548 164.85)" fill="#e0c9be"/>
    <circle id="Ellipse_3" data-name="Ellipse 3" cx="6.605" cy="6.605" r="6.605" transform="translate(171.226 306.071)" fill="#e0c9be"/>
    <circle id="Ellipse_4" data-name="Ellipse 4" cx="6.605" cy="6.605" r="6.605" transform="translate(424.285 163.939)" fill="#e0c9be"/>
    <circle id="Ellipse_5" data-name="Ellipse 5" cx="6.605" cy="6.605" r="6.605" transform="translate(540.451 328.849)" fill="#e0c9be"/>
    <circle id="Ellipse_6" data-name="Ellipse 6" cx="6.605" cy="6.605" r="6.605" transform="translate(324.747 258.693)" fill="#e0c9be"/>
  </g>
</svg>
